<?xml version="1.0" encoding="utf-8"?>
<!-- Generator: Adobe Illustrator 15.0.0, SVG Export Plug-In . SVG Version: 6.00 Build 0)  -->
<!DOCTYPE svg PUBLIC "-//W3C//DTD SVG 1.1//EN" "http://www.w3.org/Graphics/SVG/1.1/DTD/svg11.dtd">
<svg version="1.1" id="Layer_1" xmlns="http://www.w3.org/2000/svg" xmlns:xlink="http://www.w3.org/1999/xlink" x="0px" y="0px"
	 width="980px" height="103.356px" viewBox="0 0 980 103.356" enable-background="new 0 0 980 103.356" xml:space="preserve">
<g>
	<path d="M-0.231,17.234H11.11v72.172H-0.231V17.234z"/>
	<path d="M36.471,76.106l8.661-58.872h10.414L44.41,89.406H27.501L16.366,17.234h11.444L36.471,76.106z"/>
	<path d="M94.929,89.406H83.484l-1.959-13.094H67.606l-1.958,13.094H55.234l11.547-72.172h16.6L94.929,89.406z M69.05,66.517h10.929
		l-5.464-36.499L69.05,66.517z"/>
	<path d="M110.289,37.133v52.273h-10.208V17.234h14.229l11.65,43.2v-43.2h10.104v72.172h-11.651L110.289,37.133z"/>
	<path d="M180.911,89.406h-11.444l-1.959-13.094h-13.919l-1.958,13.094h-10.414l11.547-72.172h16.6L180.911,89.406z M155.032,66.517
		h10.929l-5.464-36.499L155.032,66.517z"/>
	<path d="M198.847,17.234h35.055v10.31h-11.857v61.862h-11.341V27.544h-11.857V17.234z"/>
	<path d="M237.92,34.555c0-11.548,6.083-18.146,17.218-18.146s17.218,6.599,17.218,18.146v37.53
		c0,11.547-6.083,18.146-17.218,18.146s-17.218-6.599-17.218-18.146V34.555z M249.262,72.807c0,5.155,2.268,7.114,5.877,7.114
		c3.608,0,5.877-1.959,5.877-7.114V33.833c0-5.155-2.269-7.114-5.877-7.114c-3.609,0-5.877,1.959-5.877,7.114V72.807z"/>
	<path d="M279.675,17.234h17.94c11.342,0,16.909,6.289,16.909,17.837v36.499c0,11.547-5.567,17.837-16.909,17.837h-17.94V17.234z
		 M291.016,27.544v51.552h6.393c3.609,0,5.774-1.855,5.774-7.011v-37.53c0-5.155-2.165-7.011-5.774-7.011H291.016z"/>
	<path d="M320.81,34.555c0-11.548,6.083-18.146,17.218-18.146s17.218,6.599,17.218,18.146v37.53
		c0,11.547-6.083,18.146-17.218,18.146s-17.218-6.599-17.218-18.146V34.555z M332.151,72.807c0,5.155,2.268,7.114,5.877,7.114
		c3.608,0,5.877-1.959,5.877-7.114V33.833c0-5.155-2.269-7.114-5.877-7.114c-3.609,0-5.877,1.959-5.877,7.114V72.807z"/>
	<path d="M386.278,89.406c-0.619-1.856-1.031-2.99-1.031-8.867V69.198c0-6.702-2.269-9.176-7.424-9.176h-3.918v29.385h-11.341
		V17.234h17.115c11.754,0,16.806,5.464,16.806,16.6v5.67c0,7.424-2.372,12.27-7.424,14.641c5.671,2.371,7.527,7.835,7.527,15.362
		v11.135c0,3.505,0.103,6.083,1.237,8.764H386.278z M373.905,27.544v22.167h4.434c4.228,0,6.805-1.856,6.805-7.63v-7.114
		c0-5.155-1.752-7.424-5.773-7.424H373.905z"/>
	<path d="M403.081,34.555c0-11.548,6.083-18.146,17.218-18.146s17.218,6.599,17.218,18.146v37.53
		c0,11.547-6.083,18.146-17.218,18.146s-17.218-6.599-17.218-18.146V34.555z M414.422,72.807c0,5.155,2.268,7.114,5.877,7.114
		c3.608,0,5.877-1.959,5.877-7.114V33.833c0-5.155-2.269-7.114-5.877-7.114c-3.609,0-5.877,1.959-5.877,7.114V72.807z"/>
	<path d="M461.848,76.106l8.661-58.872h10.414l-11.135,72.172h-16.909l-11.135-72.172h11.444L461.848,76.106z"/>
	<path d="M486.177,17.234h11.341v72.172h-11.341V17.234z"/>
	<path d="M538.655,62.496v9.589c0,11.547-5.774,18.146-16.909,18.146c-11.136,0-16.909-6.599-16.909-18.146v-37.53
		c0-11.548,5.773-18.146,16.909-18.146c11.135,0,16.909,6.599,16.909,18.146v7.011h-10.724v-7.733c0-5.155-2.268-7.114-5.877-7.114
		c-3.608,0-5.876,1.959-5.876,7.114v38.973c0,5.155,2.268,7.011,5.876,7.011c3.609,0,5.877-1.855,5.877-7.011V62.496H538.655z"/>
</g>
<g>
	<path fill="#EB4F36" d="M570.829,16.463h7.097c4.486,0,6.689,2.488,6.689,7.057v14.438c0,4.569-2.203,7.057-6.689,7.057h-7.097
		V16.463z M575.315,20.543v20.394h2.528c1.427,0,2.285-0.734,2.285-2.774V23.315c0-2.039-0.858-2.772-2.285-2.772H575.315z"/>
	<path fill="#EB4F36" d="M587.102,23.315c0-4.568,2.405-7.179,6.811-7.179s6.811,2.611,6.811,7.179v14.847
		c0,4.568-2.405,7.179-6.811,7.179s-6.811-2.61-6.811-7.179V23.315z M591.587,38.448c0,2.04,0.897,2.814,2.325,2.814
		s2.326-0.775,2.326-2.814V23.03c0-2.039-0.898-2.814-2.326-2.814s-2.325,0.775-2.325,2.814V38.448z"/>
	<path fill="#EB4F36" d="M616.629,34.369v3.793c0,4.568-2.284,7.179-6.689,7.179s-6.689-2.61-6.689-7.179V23.315
		c0-4.568,2.284-7.179,6.689-7.179s6.689,2.611,6.689,7.179v2.774h-4.241v-3.06c0-2.039-0.897-2.814-2.326-2.814
		c-1.427,0-2.324,0.775-2.324,2.814v15.418c0,2.04,0.897,2.773,2.324,2.773c1.429,0,2.326-0.734,2.326-2.773v-4.079H616.629z"/>
	<path fill="#EB4F36" d="M623.643,16.463v22.025c0,2.04,0.896,2.774,2.324,2.774c1.429,0,2.325-0.734,2.325-2.774V16.463h4.242
		v21.74c0,4.568-2.284,7.179-6.688,7.179c-4.405,0-6.689-2.611-6.689-7.179v-21.74H623.643z"/>
	<path fill="#EB4F36" d="M645.095,36.735l3.059-20.271h6.241v28.552h-4.242V24.54l-3.101,20.476h-4.242l-3.344-20.189v20.189h-3.916
		V16.463h6.241L645.095,36.735z"/>
	<path fill="#EB4F36" d="M662.141,28.496h6.16v4.079h-6.16v8.362h7.751v4.079h-12.236V16.463h12.236v4.08h-7.751V28.496z"/>
	<path fill="#EB4F36" d="M676.66,24.336v20.679h-4.039V16.463h5.63l4.608,17.09v-17.09h3.998v28.552h-4.609L676.66,24.336z"/>
	<path fill="#EB4F36" d="M688.771,16.463h13.868v4.08h-4.69v24.472h-4.487V20.543h-4.69V16.463z"/>
	<path fill="#EB4F36" d="M717.565,45.015h-4.527l-0.775-5.18h-5.506l-0.775,5.18h-4.119l4.568-28.552h6.567L717.565,45.015z
		 M707.328,35.96h4.324l-2.162-14.439L707.328,35.96z"/>
	<path fill="#EB4F36" d="M729.024,45.015c-0.244-0.734-0.408-1.183-0.408-3.508v-4.486c0-2.652-0.896-3.63-2.936-3.63h-1.55v11.625
		h-4.487V16.463h6.771c4.65,0,6.648,2.162,6.648,6.567v2.243c0,2.937-0.938,4.854-2.937,5.792c2.243,0.938,2.978,3.1,2.978,6.078
		v4.404c0,1.387,0.042,2.407,0.488,3.467H729.024z M724.131,20.543v8.769h1.753c1.672,0,2.692-0.734,2.692-3.019v-2.814
		c0-2.04-0.693-2.936-2.285-2.936H724.131z"/>
	<path fill="#EB4F36" d="M739.832,35.552l-5.669-19.089h4.689l3.427,13.012l3.427-13.012h4.282l-5.669,19.089v9.463h-4.487V35.552z"
		/>
</g>
<g>
	<path fill="#EB4F36" d="M576.843,69.65h7.242v5.1h-7.242v14.737h-5.608V53.791h14.838v5.099h-9.229V69.65z"/>
	<path fill="#EB4F36" d="M588.774,53.791h5.61v35.696h-5.61V53.791z"/>
	<path fill="#EB4F36" d="M598.462,53.791h5.609v30.598h9.229v5.099h-14.839V53.791z"/>
	<path fill="#EB4F36" d="M627.629,79.135l3.824-25.344h7.803v35.696h-5.304v-25.6l-3.876,25.6h-5.302l-4.183-25.243v25.243h-4.896
		V53.791h7.803L627.629,79.135z"/>
	<path fill="#EB4F36" d="M655.215,79.135l3.823-25.344h7.803v35.696h-5.303v-25.6l-3.876,25.6h-5.303l-4.183-25.243v25.243h-4.896
		V53.791h7.803L655.215,79.135z"/>
	<path fill="#EB4F36" d="M689.072,89.487h-5.661l-0.969-6.476h-6.885l-0.969,6.476h-5.151l5.712-35.696h8.211L689.072,89.487z
		 M676.271,78.166h5.406l-2.703-18.052L676.271,78.166z"/>
	<path fill="#EB4F36" d="M699.014,75.259l-1.734,3.265v10.963h-5.61V53.791h5.61v15.553l7.344-15.553h5.609L702.43,69.7
		l7.803,19.787h-5.762L699.014,75.259z"/>
	<path fill="#EB4F36" d="M718.39,68.834h7.7v5.1h-7.7v10.454h9.688v5.099h-15.299V53.791h15.299v5.099h-9.688V68.834z"/>
	<path fill="#EB4F36" d="M743.272,89.487c-0.306-0.917-0.51-1.478-0.51-4.386v-5.609c0-3.313-1.121-4.538-3.671-4.538h-1.938v14.533
		h-5.609V53.791h8.464c5.814,0,8.312,2.702,8.312,8.209v2.806c0,3.671-1.173,6.068-3.671,7.24c2.805,1.174,3.724,3.877,3.724,7.6
		v5.507c0,1.734,0.05,3.009,0.611,4.334H743.272z M737.154,58.89v10.964h2.192c2.09,0,3.365-0.918,3.365-3.774v-3.519
		c0-2.549-0.866-3.671-2.855-3.671H737.154z"/>
</g>
<rect y="-0.2" fill="none" width="980" height="104"/>
</svg>
