<?xml version="1.0" encoding="utf-8"?>
<!-- Generator: Adobe Illustrator 15.0.0, SVG Export Plug-In . SVG Version: 6.00 Build 0)  -->
<!DOCTYPE svg PUBLIC "-//W3C//DTD SVG 1.1//EN" "http://www.w3.org/Graphics/SVG/1.1/DTD/svg11.dtd">
<svg version="1.1" id="Layer_1" xmlns="http://www.w3.org/2000/svg" xmlns:xlink="http://www.w3.org/1999/xlink" x="0px" y="0px"
	 width="360px" height="50px" viewBox="0 0 360 50" enable-background="new 0 0 360 50" xml:space="preserve">
<g>
	<path fill="#EB4F36" d="M2.148,9.892h7.524c4.757,0,7.092,2.637,7.092,7.483v15.309c0,4.845-2.335,7.482-7.092,7.482H2.148V9.892z
		 M6.906,14.217V35.84h2.68c1.511,0,2.422-0.777,2.422-2.941V17.157c0-2.162-0.91-2.939-2.422-2.939H6.906z"/>
	<path fill="#EB4F36" d="M19.402,17.157c0-4.843,2.55-7.612,7.221-7.612c4.67,0,7.221,2.769,7.221,7.612v15.742
		c0,4.844-2.552,7.613-7.221,7.613c-4.671,0-7.221-2.769-7.221-7.613V17.157z M24.157,33.201c0,2.162,0.953,2.985,2.467,2.985
		c1.511,0,2.465-0.823,2.465-2.985V16.854c0-2.162-0.954-2.984-2.465-2.984c-1.514,0-2.467,0.822-2.467,2.984V33.201z"/>
	<path fill="#EB4F36" d="M50.709,28.877v4.021c0,4.844-2.423,7.613-7.093,7.613c-4.67,0-7.092-2.769-7.092-7.613V17.157
		c0-4.843,2.422-7.612,7.092-7.612s7.093,2.769,7.093,7.612v2.942h-4.499v-3.245c0-2.162-0.952-2.983-2.464-2.983
		c-1.514,0-2.465,0.822-2.465,2.983v16.348c0,2.162,0.951,2.941,2.465,2.941c1.512,0,2.464-0.779,2.464-2.941v-4.324H50.709z"/>
	<path fill="#EB4F36" d="M58.147,9.892v23.352c0,2.164,0.951,2.941,2.463,2.941c1.514,0,2.464-0.777,2.464-2.941V9.892h4.499v23.051
		c0,4.844-2.422,7.612-7.091,7.612c-4.67,0-7.092-2.769-7.092-7.612V9.892H58.147z"/>
	<path fill="#EB4F36" d="M80.893,31.385l3.244-21.494h6.617v30.274h-4.5v-21.71l-3.287,21.711h-4.498l-3.546-21.407v21.407h-4.154
		V9.892h6.619L80.893,31.385z"/>
	<path fill="#EB4F36" d="M98.967,22.65h6.541v4.325h-6.541v8.865h8.228v4.325H94.21V9.892h12.985v4.325h-8.228V22.65z"/>
	<path fill="#EB4F36" d="M114.371,18.238v21.928h-4.282V9.892h5.969l4.887,18.122V9.892h4.239v30.274h-4.888L114.371,18.238z"/>
	<path fill="#EB4F36" d="M127.211,9.892h14.705v4.325h-4.972v25.949h-4.758V14.217h-4.974V9.892L127.211,9.892z"/>
	<path fill="#EB4F36" d="M157.743,40.165h-4.799l-0.822-5.491h-5.838l-0.822,5.491h-4.369l4.845-30.274h6.964L157.743,40.165z
		 M146.889,30.564h4.584l-2.293-15.31L146.889,30.564z"/>
	<path fill="#EB4F36" d="M169.895,40.165c-0.26-0.778-0.433-1.254-0.433-3.72v-4.756c0-2.812-0.952-3.85-3.112-3.85h-1.644v12.325
		h-4.759V9.892h7.18c4.932,0,7.048,2.292,7.048,6.962v2.379c0,3.113-0.994,5.146-3.113,6.14c2.379,0.995,3.157,3.286,3.157,6.444
		v4.671c0,1.471,0.046,2.552,0.519,3.676H169.895z M164.706,14.217v9.298h1.859c1.772,0,2.853-0.778,2.853-3.201V17.33
		c0-2.162-0.735-3.112-2.422-3.112H164.706z"/>
	<path fill="#EB4F36" d="M181.353,30.131l-6.01-20.24h4.975l3.632,13.796l3.632-13.796h4.543l-6.014,20.24v10.034h-4.758V30.131z"/>
</g>
<g>
	<path fill="#EB4F36" d="M208.966,23.209h6.241v4.394h-6.241v12.696h-4.83V9.545h12.783v4.393h-7.953V23.209z"/>
	<path fill="#EB4F36" d="M219.247,9.545h4.835v30.756h-4.835V9.545z"/>
	<path fill="#EB4F36" d="M227.596,9.545h4.831v26.363h7.953v4.394h-12.784V9.545z"/>
	<path fill="#EB4F36" d="M252.723,31.381l3.297-21.836h6.724v30.756h-4.571V18.244l-3.338,22.057h-4.568l-3.604-21.749v21.749
		h-4.217V9.545h6.723L252.723,31.381z"/>
	<path fill="#EB4F36" d="M276.494,31.381l3.292-21.836h6.724v30.756h-4.57V18.244l-3.339,22.057h-4.567l-3.603-21.749v21.749h-4.217
		V9.545h6.721L276.494,31.381z"/>
	<path fill="#EB4F36" d="M305.664,40.301h-4.879l-0.834-5.58h-5.932l-0.835,5.58h-4.439l4.921-30.756h7.077L305.664,40.301z
		 M294.636,30.546h4.656l-2.328-15.553L294.636,30.546z"/>
	<path fill="#EB4F36" d="M314.229,28.043l-1.493,2.812v9.446h-4.836V9.545h4.836v13.4l6.326-13.4h4.833l-6.725,13.707l6.724,17.046
		h-4.961L314.229,28.043z"/>
	<path fill="#EB4F36" d="M330.922,22.506h6.636V26.9h-6.636v9.008h8.35v4.393h-13.181V9.545h13.181v4.393h-8.35V22.506z"/>
	<path fill="#EB4F36" d="M352.363,40.301c-0.264-0.791-0.44-1.273-0.44-3.779v-4.832c0-2.855-0.966-3.909-3.163-3.909h-1.669v12.521
		h-4.833V9.545h7.293c5.009,0,7.162,2.329,7.162,7.074v2.417c0,3.163-1.011,5.229-3.163,6.239c2.416,1.011,3.207,3.34,3.207,6.548
		v4.745c0,1.493,0.043,2.593,0.528,3.734L352.363,40.301L352.363,40.301L352.363,40.301z M347.091,13.938v9.447h1.889
		c1.802,0,2.9-0.791,2.9-3.251v-3.032c0-2.197-0.747-3.164-2.46-3.164H347.091L347.091,13.938z"/>
</g>
</svg>
