<?xml version="1.0" encoding="utf-8"?>
<!-- Generator: Adobe Illustrator 15.0.0, SVG Export Plug-In . SVG Version: 6.00 Build 0)  -->
<!DOCTYPE svg PUBLIC "-//W3C//DTD SVG 1.1//EN" "http://www.w3.org/Graphics/SVG/1.1/DTD/svg11.dtd">
<svg version="1.1" id="Layer_1" xmlns="http://www.w3.org/2000/svg" xmlns:xlink="http://www.w3.org/1999/xlink" x="0px" y="0px"
	 width="720px" height="103.355px" viewBox="0 0 720 103.355" enable-background="new 0 0 720 103.355" xml:space="preserve">
<g>
	<path d="M2.019,4.599h14.75v93.869H2.019V4.599z"/>
	<path d="M49.754,81.169l11.265-76.57h13.544L60.08,98.468H38.088L23.605,4.599H38.49L49.754,81.169z"/>
	<path d="M125.785,98.468H110.9l-2.548-17.031H90.249l-2.547,17.031H74.158L89.176,4.599h21.59L125.785,98.468z M92.127,68.698
		h14.213l-7.106-47.472L92.127,68.698z"/>
	<path d="M145.763,30.48v67.988h-13.276V4.599h18.506l15.153,56.188V4.599h13.142v93.869h-15.153L145.763,30.48z"/>
	<path d="M237.616,98.468H222.73l-2.547-17.031h-18.104l-2.548,17.031h-13.543l15.019-93.869h21.589L237.616,98.468z
		 M203.957,68.698h14.214l-7.107-47.472L203.957,68.698z"/>
	<path d="M260.943,4.599h45.592v13.41h-15.42v80.459h-14.751V18.009h-15.421V4.599z"/>
	<path d="M311.762,27.128c0-15.021,7.912-23.603,22.395-23.603c14.482,0,22.394,8.583,22.394,23.603v48.811
		c0,15.02-7.912,23.602-22.394,23.602c-14.483,0-22.395-8.583-22.395-23.602V27.128z M326.513,76.878
		c0,6.705,2.951,9.252,7.644,9.252c4.693,0,7.644-2.547,7.644-9.252V26.189c0-6.706-2.95-9.253-7.644-9.253
		c-4.694,0-7.644,2.547-7.644,9.253V76.878z"/>
	<path d="M366.069,4.599h23.333c14.751,0,21.992,8.18,21.992,23.199v47.47c0,15.02-7.24,23.199-21.992,23.199h-23.333V4.599z
		 M380.82,18.009v67.048h8.313c4.694,0,7.51-2.413,7.51-9.118V27.128c0-6.706-2.816-9.119-7.51-9.119H380.82z"/>
	<path d="M419.569,27.128c0-15.021,7.912-23.603,22.395-23.603c14.483,0,22.396,8.583,22.396,23.603v48.811
		c0,15.02-7.912,23.602-22.396,23.602c-14.482,0-22.395-8.583-22.395-23.602V27.128z M434.32,76.878
		c0,6.705,2.949,9.252,7.644,9.252c4.693,0,7.645-2.547,7.645-9.252V26.189c0-6.706-2.951-9.253-7.645-9.253
		c-4.694,0-7.644,2.547-7.644,9.253V76.878z"/>
	<path d="M504.718,98.468c-0.804-2.414-1.339-3.89-1.339-11.532V72.184c0-8.716-2.951-11.935-9.656-11.935h-5.096v38.219h-14.75
		V4.599h22.26c15.288,0,21.858,7.107,21.858,21.59v7.375c0,9.656-3.085,15.958-9.655,19.043c7.377,3.083,9.79,10.191,9.79,19.98
		v14.481c0,4.56,0.134,7.912,1.608,11.398L504.718,98.468L504.718,98.468z M488.626,18.009V46.84h5.767
		c5.498,0,8.851-2.414,8.851-9.923v-9.252c0-6.705-2.279-9.655-7.509-9.655L488.626,18.009L488.626,18.009z"/>
	<path d="M526.573,27.128c0-15.021,7.911-23.603,22.396-23.603c14.481,0,22.394,8.583,22.394,23.603v48.811
		c0,15.02-7.911,23.602-22.394,23.602c-14.483,0-22.396-8.583-22.396-23.602V27.128z M541.323,76.878
		c0,6.705,2.951,9.252,7.646,9.252c4.691,0,7.644-2.547,7.644-9.252V26.189c0-6.706-2.951-9.253-7.644-9.253
		c-4.693,0-7.646,2.547-7.646,9.253V76.878z"/>
	<path d="M603.007,81.169l11.263-76.57h13.547l-14.483,93.869h-21.991L576.857,4.599h14.885L603.007,81.169z"/>
	<path d="M634.648,4.599H649.4v93.869h-14.752V4.599z"/>
	<path d="M702.903,63.468v12.471c0,15.02-7.512,23.602-21.993,23.602c-14.482,0-21.993-8.583-21.993-23.602V27.128
		c0-15.021,7.511-23.603,21.993-23.603c14.481,0,21.993,8.583,21.993,23.603v9.118h-13.948V26.189c0-6.706-2.949-9.253-7.643-9.253
		c-4.694,0-7.645,2.547-7.645,9.253v50.689c0,6.705,2.95,9.118,7.645,9.118c4.693,0,7.643-2.413,7.643-9.118v-13.41H702.903z"/>
</g>
<rect y="-0.2" fill="none" width="720" height="104"/>
</svg>
