<?xml version="1.0" encoding="utf-8"?>
<!-- Generator: Adobe Illustrator 15.0.0, SVG Export Plug-In . SVG Version: 6.00 Build 0)  -->
<!DOCTYPE svg PUBLIC "-//W3C//DTD SVG 1.1//EN" "http://www.w3.org/Graphics/SVG/1.1/DTD/svg11.dtd">
<svg version="1.1" id="Layer_1" xmlns="http://www.w3.org/2000/svg" xmlns:xlink="http://www.w3.org/1999/xlink" x="0px" y="0px"
	 width="260px" height="103.355px" viewBox="720 0 260 103.355" enable-background="new 720 0 260 103.355" xml:space="preserve">
<g>
	<path fill="#EB4F36" d="M732.499,3.597h9.229c5.835,0,8.7,3.236,8.7,9.179v18.778c0,5.943-2.866,9.178-8.7,9.178h-9.229V3.597z
		 M738.334,8.903v26.524h3.288c1.854,0,2.972-0.955,2.972-3.608v-19.31c0-2.652-1.116-3.606-2.972-3.606H738.334z"/>
	<path fill="#EB4F36" d="M753.664,12.509c0-5.941,3.128-9.337,8.857-9.337c5.729,0,8.857,3.396,8.857,9.337v19.31
		c0,5.941-3.13,9.338-8.857,9.338c-5.729,0-8.857-3.396-8.857-9.338V12.509z M759.496,32.19c0,2.653,1.168,3.661,3.025,3.661
		c1.854,0,3.024-1.008,3.024-3.661V12.138c0-2.652-1.17-3.66-3.024-3.66c-1.857,0-3.025,1.008-3.025,3.66V32.19z"/>
	<path fill="#EB4F36" d="M792.066,26.885v4.934c0,5.941-2.972,9.338-8.7,9.338c-5.729,0-8.7-3.396-8.7-9.338v-19.31
		c0-5.941,2.972-9.337,8.7-9.337s8.7,3.396,8.7,9.337v3.608h-5.517v-3.98c0-2.652-1.168-3.66-3.024-3.66s-3.023,1.008-3.023,3.66
		V32.19c0,2.653,1.167,3.608,3.023,3.608s3.024-0.955,3.024-3.608v-5.305H792.066z"/>
	<path fill="#EB4F36" d="M801.189,3.597v28.646c0,2.652,1.166,3.607,3.021,3.607c1.858,0,3.023-0.955,3.023-3.607V3.597h5.519
		v28.276c0,5.941-2.972,9.338-8.699,9.338c-5.729,0-8.7-3.396-8.7-9.338V3.597H801.189z"/>
	<path fill="#EB4F36" d="M829.09,29.962l3.979-26.366h8.116v37.135h-5.519v-26.63l-4.032,26.631h-5.518l-4.35-26.258v26.258h-5.095
		V3.597h8.119L829.09,29.962z"/>
	<path fill="#EB4F36" d="M851.259,19.247h8.013v5.305h-8.013v10.875h10.082v5.304h-15.914V3.597h15.914v5.306h-10.082V19.247z"/>
	<path fill="#EB4F36" d="M870.145,13.836v26.896h-5.254V3.597h7.321l5.995,22.229V3.597h5.2v37.135h-5.995L870.145,13.836z"/>
	<path fill="#EB4F36" d="M885.895,3.597h18.037v5.306h-6.1v31.829h-5.837V8.903h-6.101V3.597L885.895,3.597z"/>
	<path fill="#EB4F36" d="M923.346,40.731h-5.888l-1.008-6.735h-7.161l-1.009,6.735h-5.358l5.942-37.135h8.542L923.346,40.731z
		 M910.031,28.955h5.624l-2.812-18.78L910.031,28.955z"/>
	<path fill="#EB4F36" d="M938.251,40.731c-0.319-0.955-0.531-1.538-0.531-4.562v-5.833c0-3.45-1.167-4.724-3.817-4.724h-2.017
		v15.119h-5.837V3.597h8.807c6.049,0,8.646,2.812,8.646,8.541v2.918c0,3.819-1.219,6.313-3.819,7.533
		c2.918,1.22,3.873,4.031,3.873,7.905v5.728c0,1.805,0.056,3.13,0.637,4.509H938.251z M931.886,8.903v11.405h2.28
		c2.175,0,3.5-0.955,3.5-3.926v-3.661c0-2.652-0.901-3.818-2.972-3.818H931.886z"/>
	<path fill="#EB4F36" d="M952.307,28.424l-7.373-24.828h6.099l4.458,16.923l4.456-16.923h5.57l-7.374,24.828v12.307h-5.836V28.424z"
		/>
</g>
<g>
	<path fill="#EB4F36" d="M740.319,72.772h9.42v6.632h-9.42v19.167h-7.293V52.146h19.299v6.632h-12.006V72.772z"/>
	<path fill="#EB4F36" d="M755.839,52.146h7.298v46.428h-7.298V52.146z"/>
	<path fill="#EB4F36" d="M768.439,52.146h7.294v39.796h12.005v6.632h-19.299V52.146z"/>
	<path fill="#EB4F36" d="M806.373,85.108l4.974-32.963h10.149v46.427h-6.899V65.277l-5.04,33.295h-6.896l-5.44-32.83v32.83h-6.365
		V52.146h10.146L806.373,85.108z"/>
	<path fill="#EB4F36" d="M842.252,85.108l4.973-32.963h10.148v46.427h-6.896V65.277l-5.041,33.295h-6.896l-5.439-32.83v32.83h-6.366
		V52.146h10.148L842.252,85.108z"/>
	<path fill="#EB4F36" d="M886.288,98.572h-7.363l-1.261-8.423h-8.953l-1.26,8.424h-6.701l7.429-46.428h10.681L886.288,98.572z
		 M869.639,83.848h7.031l-3.516-23.479L869.639,83.848z"/>
	<path fill="#EB4F36" d="M899.218,80.068l-2.256,4.246v14.26h-7.297V52.146h7.297v20.229l9.551-20.229h7.296L903.66,72.838
		l10.148,25.733h-7.492L899.218,80.068z"/>
	<path fill="#EB4F36" d="M924.417,71.711h10.017v6.634h-10.017v13.596h12.602v6.631h-19.896V52.146h19.896v6.632h-12.602V71.711z"/>
	<path fill="#EB4F36" d="M956.781,98.572c-0.396-1.192-0.663-1.922-0.663-5.704v-7.295c0-4.31-1.458-5.901-4.774-5.901h-2.52v18.902
		h-7.296V52.146h11.008c7.562,0,10.811,3.516,10.811,10.678v3.648c0,4.774-1.524,7.893-4.773,9.417
		c3.647,1.526,4.843,5.042,4.843,9.884v7.163c0,2.255,0.064,3.914,0.795,5.638h-7.43V98.572z M948.824,58.777v14.261h2.851
		c2.719,0,4.377-1.193,4.377-4.909v-4.577c0-3.315-1.126-4.775-3.713-4.775L948.824,58.777L948.824,58.777z"/>
</g>
</svg>
