<?xml version="1.0" encoding="utf-8"?>
<!-- Generator: Adobe Illustrator 15.0.0, SVG Export Plug-In . SVG Version: 6.00 Build 0)  -->
<!DOCTYPE svg PUBLIC "-//W3C//DTD SVG 1.1//EN" "http://www.w3.org/Graphics/SVG/1.1/DTD/svg11.dtd">
<svg version="1.1" id="Layer_1" xmlns="http://www.w3.org/2000/svg" xmlns:xlink="http://www.w3.org/1999/xlink" x="0px" y="0px"
	 width="980px" height="121.178px" viewBox="0 -17.822 980 121.178" enable-background="new 0 -17.822 980 121.178"
	 xml:space="preserve">
<path d="M-0.231,4.599h14.75v93.869h-14.75V4.599z"/>
<path d="M47.504,81.169l11.265-76.57h13.544L57.83,98.468H35.838L21.355,4.599H36.24L47.504,81.169z"/>
<path d="M123.535,98.468H108.65l-2.548-17.031H87.999l-2.547,17.031H71.908L86.926,4.599h21.59L123.535,98.468z M89.877,68.698
	h14.213l-7.106-47.472L89.877,68.698z"/>
<path d="M143.513,30.48v67.988h-13.276V4.599h18.506l15.153,56.188V4.599h13.142v93.869h-15.153L143.513,30.48z"/>
<path d="M235.366,98.468H220.48l-2.547-17.031h-18.104l-2.548,17.031h-13.543l15.019-93.869h21.589L235.366,98.468z M201.707,68.698
	h14.214l-7.107-47.472L201.707,68.698z"/>
<path d="M258.693,4.599h45.592v13.41h-15.42v80.459h-14.751V18.009h-15.421V4.599z"/>
<path d="M309.512,27.128c0-15.021,7.912-23.603,22.395-23.603c14.482,0,22.394,8.583,22.394,23.603v48.811
	c0,15.02-7.912,23.602-22.394,23.602c-14.483,0-22.395-8.583-22.395-23.602V27.128z M324.263,76.878
	c0,6.705,2.951,9.252,7.644,9.252c4.693,0,7.644-2.547,7.644-9.252V26.189c0-6.706-2.95-9.253-7.644-9.253
	c-4.694,0-7.644,2.547-7.644,9.253V76.878z"/>
<path d="M363.819,4.599h23.333c14.751,0,21.992,8.18,21.992,23.199v47.47c0,15.02-7.24,23.199-21.992,23.199h-23.333V4.599z
	 M378.57,18.009v67.048h8.313c4.694,0,7.51-2.413,7.51-9.118V27.128c0-6.706-2.816-9.119-7.51-9.119H378.57z"/>
<path d="M417.319,27.128c0-15.021,7.912-23.603,22.395-23.603c14.483,0,22.396,8.583,22.396,23.603v48.811
	c0,15.02-7.912,23.602-22.396,23.602c-14.482,0-22.395-8.583-22.395-23.602V27.128z M432.07,76.878c0,6.705,2.949,9.252,7.644,9.252
	c4.693,0,7.645-2.547,7.645-9.252V26.189c0-6.706-2.951-9.253-7.645-9.253c-4.694,0-7.644,2.547-7.644,9.253V76.878z"/>
<path d="M502.468,98.468c-0.804-2.414-1.339-3.89-1.339-11.532V72.184c0-8.716-2.951-11.935-9.656-11.935h-5.096v38.219h-14.75
	V4.599h22.26c15.288,0,21.858,7.107,21.858,21.59v7.375c0,9.656-3.085,15.958-9.655,19.043c7.377,3.083,9.79,10.191,9.79,19.98
	v14.481c0,4.56,0.134,7.912,1.608,11.398L502.468,98.468L502.468,98.468z M486.376,18.009V46.84h5.767
	c5.498,0,8.851-2.414,8.851-9.923v-9.252c0-6.705-2.279-9.655-7.509-9.655L486.376,18.009L486.376,18.009z"/>
<path d="M524.323,27.128c0-15.021,7.911-23.603,22.396-23.603c14.481,0,22.394,8.583,22.394,23.603v48.811
	c0,15.02-7.911,23.602-22.394,23.602c-14.483,0-22.396-8.583-22.396-23.602V27.128z M539.073,76.878
	c0,6.705,2.951,9.252,7.646,9.252c4.691,0,7.644-2.547,7.644-9.252V26.189c0-6.706-2.951-9.253-7.644-9.253
	c-4.693,0-7.646,2.547-7.646,9.253V76.878z"/>
<path d="M600.757,81.169l11.263-76.57h13.547l-14.483,93.869h-21.991L574.607,4.599h14.885L600.757,81.169z"/>
<path d="M632.398,4.599h14.752v93.869h-14.752V4.599z"/>
<path d="M700.653,63.468v12.471c0,15.02-7.512,23.602-21.993,23.602c-14.482,0-21.993-8.583-21.993-23.602V27.128
	c0-15.021,7.511-23.603,21.993-23.603c14.481,0,21.993,8.583,21.993,23.603v9.118h-13.948V26.189c0-6.706-2.949-9.253-7.643-9.253
	c-4.694,0-7.645,2.547-7.645,9.253v50.689c0,6.705,2.95,9.118,7.645,9.118c4.693,0,7.643-2.413,7.643-9.118v-13.41H700.653z"/>
<g>
	<path fill="#EB4F36" d="M742.499,3.597h9.229c5.835,0,8.7,3.236,8.7,9.179v18.778c0,5.943-2.866,9.178-8.7,9.178h-9.229V3.597z
		 M748.334,8.903v26.524h3.288c1.854,0,2.972-0.955,2.972-3.608v-19.31c0-2.652-1.116-3.606-2.972-3.606H748.334z"/>
	<path fill="#EB4F36" d="M763.664,12.509c0-5.941,3.128-9.337,8.857-9.337c5.729,0,8.857,3.396,8.857,9.337v19.31
		c0,5.941-3.13,9.338-8.857,9.338c-5.729,0-8.857-3.396-8.857-9.338V12.509z M769.496,32.19c0,2.653,1.168,3.661,3.025,3.661
		c1.854,0,3.024-1.008,3.024-3.661V12.138c0-2.652-1.17-3.66-3.024-3.66c-1.857,0-3.025,1.008-3.025,3.66V32.19z"/>
	<path fill="#EB4F36" d="M802.066,26.885v4.934c0,5.941-2.972,9.338-8.7,9.338c-5.729,0-8.7-3.396-8.7-9.338v-19.31
		c0-5.941,2.972-9.337,8.7-9.337s8.7,3.396,8.7,9.337v3.608h-5.517v-3.98c0-2.652-1.168-3.66-3.024-3.66s-3.023,1.008-3.023,3.66
		V32.19c0,2.653,1.167,3.608,3.023,3.608s3.024-0.955,3.024-3.608v-5.305H802.066z"/>
	<path fill="#EB4F36" d="M811.189,3.597v28.646c0,2.652,1.166,3.607,3.021,3.607c1.858,0,3.023-0.955,3.023-3.607V3.597h5.519
		v28.276c0,5.941-2.972,9.338-8.699,9.338c-5.729,0-8.7-3.396-8.7-9.338V3.597H811.189z"/>
	<path fill="#EB4F36" d="M839.09,29.962l3.979-26.366h8.116v37.135h-5.519v-26.63l-4.032,26.631h-5.518l-4.35-26.258v26.258h-5.095
		V3.597h8.119L839.09,29.962z"/>
	<path fill="#EB4F36" d="M861.259,19.247h8.013v5.305h-8.013v10.875h10.082v5.304h-15.914V3.597h15.914v5.306h-10.082V19.247z"/>
	<path fill="#EB4F36" d="M880.145,13.836v26.896h-5.254V3.597h7.321l5.995,22.229V3.597h5.2v37.135h-5.995L880.145,13.836z"/>
	<path fill="#EB4F36" d="M895.895,3.597h18.037v5.306h-6.1v31.829h-5.837V8.903h-6.101V3.597L895.895,3.597z"/>
	<path fill="#EB4F36" d="M933.346,40.731h-5.888l-1.008-6.735h-7.161l-1.009,6.735h-5.358l5.942-37.135h8.542L933.346,40.731z
		 M920.031,28.955h5.624l-2.812-18.78L920.031,28.955z"/>
	<path fill="#EB4F36" d="M948.251,40.731c-0.319-0.955-0.531-1.538-0.531-4.562v-5.833c0-3.45-1.167-4.724-3.817-4.724h-2.017
		v15.119h-5.837V3.597h8.807c6.049,0,8.646,2.812,8.646,8.541v2.918c0,3.819-1.219,6.313-3.819,7.533
		c2.918,1.22,3.873,4.031,3.873,7.905v5.728c0,1.805,0.056,3.13,0.637,4.509H948.251z M941.886,8.903v11.405h2.28
		c2.175,0,3.5-0.955,3.5-3.926v-3.661c0-2.652-0.901-3.818-2.972-3.818H941.886z"/>
	<path fill="#EB4F36" d="M962.307,28.424l-7.373-24.828h6.099l4.458,16.923l4.456-16.923h5.57l-7.374,24.828v12.307h-5.836V28.424z"
		/>
</g>
<g>
	<path fill="#EB4F36" d="M750.319,72.772h9.42v6.632h-9.42v19.167h-7.293V52.146h19.299v6.632h-12.006V72.772z"/>
	<path fill="#EB4F36" d="M765.839,52.146h7.298v46.428h-7.298V52.146z"/>
	<path fill="#EB4F36" d="M778.439,52.146h7.294v39.796h12.005v6.632h-19.299V52.146z"/>
	<path fill="#EB4F36" d="M816.373,85.108l4.974-32.963h10.149v46.427h-6.899V65.277l-5.04,33.295h-6.896l-5.44-32.83v32.83h-6.365
		V52.146h10.146L816.373,85.108z"/>
	<path fill="#EB4F36" d="M852.252,85.108l4.973-32.963h10.148v46.427h-6.896V65.277l-5.041,33.295h-6.896l-5.439-32.83v32.83h-6.366
		V52.146h10.148L852.252,85.108z"/>
	<path fill="#EB4F36" d="M896.288,98.572h-7.363l-1.261-8.423h-8.953l-1.26,8.424h-6.701l7.429-46.428h10.681L896.288,98.572z
		 M879.639,83.848h7.031l-3.516-23.479L879.639,83.848z"/>
	<path fill="#EB4F36" d="M909.218,80.068l-2.256,4.246v14.26h-7.297V52.146h7.297v20.229l9.551-20.229h7.296L913.66,72.838
		l10.148,25.733h-7.492L909.218,80.068z"/>
	<path fill="#EB4F36" d="M934.417,71.711h10.017v6.634h-10.017v13.596h12.602v6.631h-19.896V52.146h19.896v6.632h-12.602V71.711z"/>
	<path fill="#EB4F36" d="M966.781,98.572c-0.396-1.192-0.663-1.922-0.663-5.704v-7.295c0-4.31-1.458-5.901-4.774-5.901h-2.52v18.902
		h-7.296V52.146h11.008c7.562,0,10.811,3.516,10.811,10.678v3.648c0,4.774-1.524,7.893-4.773,9.417
		c3.647,1.526,4.843,5.042,4.843,9.884v7.163c0,2.255,0.064,3.914,0.795,5.638h-7.43V98.572z M958.824,58.777v14.261h2.851
		c2.719,0,4.377-1.193,4.377-4.909v-4.577c0-3.315-1.126-4.775-3.713-4.775L958.824,58.777L958.824,58.777z"/>
</g>
<rect y="-0.2" fill="none" width="980" height="104"/>
<polygon points="694.936,-13.362 681.551,1.205 671.84,1.205 680.764,-13.362 "/>
</svg>
